<svg width="16" height="21" viewBox="0 0 16 21" fill="none" xmlns="http://www.w3.org/2000/svg">
<path d="M1.99951 21C1.44951 21 0.978678 20.8042 0.587012 20.4125C0.195345 20.0208 -0.000488281 19.55 -0.000488281 19V9C-0.000488281 8.45 0.195345 7.97917 0.587012 7.5875C0.978678 7.19583 1.44951 7 1.99951 7H2.99951V5C2.99951 3.61667 3.48701 2.4375 4.46201 1.4625C5.43701 0.4875 6.61618 0 7.99951 0C9.38284 0 10.562 0.4875 11.537 1.4625C12.512 2.4375 12.9995 3.61667 12.9995 5V7H13.9995C14.5495 7 15.0203 7.19583 15.412 7.5875C15.8037 7.97917 15.9995 8.45 15.9995 9V19C15.9995 19.55 15.8037 20.0208 15.412 20.4125C15.0203 20.8042 14.5495 21 13.9995 21H1.99951ZM1.99951 19H13.9995V9H1.99951V19ZM7.99951 16C8.54951 16 9.02035 15.8042 9.41201 15.4125C9.80368 15.0208 9.99951 14.55 9.99951 14C9.99951 13.45 9.80368 12.9792 9.41201 12.5875C9.02035 12.1958 8.54951 12 7.99951 12C7.44951 12 6.97868 12.1958 6.58701 12.5875C6.19534 12.9792 5.99951 13.45 5.99951 14C5.99951 14.55 6.19534 15.0208 6.58701 15.4125C6.97868 15.8042 7.44951 16 7.99951 16ZM4.99951 7H10.9995V5C10.9995 4.16667 10.7078 3.45833 10.1245 2.875C9.54118 2.29167 8.83284 2 7.99951 2C7.16618 2 6.45785 2.29167 5.87451 2.875C5.29118 3.45833 4.99951 4.16667 4.99951 5V7Z" fill="#A8A8A8"/>
</svg>
