<svg width="16" height="16" viewBox="0 0 16 16" fill="none" xmlns="http://www.w3.org/2000/svg">
<path d="M7.99951 8C6.89951 8 5.95785 7.60833 5.17451 6.825C4.39118 6.04167 3.99951 5.1 3.99951 4C3.99951 2.9 4.39118 1.95833 5.17451 1.175C5.95785 0.391667 6.89951 0 7.99951 0C9.09951 0 10.0412 0.391667 10.8245 1.175C11.6078 1.95833 11.9995 2.9 11.9995 4C11.9995 5.1 11.6078 6.04167 10.8245 6.825C10.0412 7.60833 9.09951 8 7.99951 8ZM13.9995 16H1.99951C1.44951 16 0.978678 15.8042 0.587012 15.4125C0.195345 15.0208 -0.000488281 14.55 -0.000488281 14V13.2C-0.000488281 12.6333 0.145345 12.1125 0.437012 11.6375C0.728678 11.1625 1.11618 10.8 1.59951 10.55C2.63284 10.0333 3.68285 9.64583 4.74951 9.3875C5.81618 9.12917 6.89951 9 7.99951 9C9.09951 9 10.1828 9.12917 11.2495 9.3875C12.3162 9.64583 13.3662 10.0333 14.3995 10.55C14.8828 10.8 15.2703 11.1625 15.562 11.6375C15.8537 12.1125 15.9995 12.6333 15.9995 13.2V14C15.9995 14.55 15.8037 15.0208 15.412 15.4125C15.0203 15.8042 14.5495 16 13.9995 16ZM1.99951 14H13.9995V13.2C13.9995 13.0167 13.9537 12.85 13.862 12.7C13.7703 12.55 13.6495 12.4333 13.4995 12.35C12.5995 11.9 11.6912 11.5625 10.7745 11.3375C9.85785 11.1125 8.93285 11 7.99951 11C7.06618 11 6.14118 11.1125 5.22451 11.3375C4.30785 11.5625 3.39951 11.9 2.49951 12.35C2.34951 12.4333 2.22868 12.55 2.13701 12.7C2.04535 12.85 1.99951 13.0167 1.99951 13.2V14ZM7.99951 6C8.54951 6 9.02035 5.80417 9.41201 5.4125C9.80368 5.02083 9.99951 4.55 9.99951 4C9.99951 3.45 9.80368 2.97917 9.41201 2.5875C9.02035 2.19583 8.54951 2 7.99951 2C7.44951 2 6.97868 2.19583 6.58701 2.5875C6.19534 2.97917 5.99951 3.45 5.99951 4C5.99951 4.55 6.19534 5.02083 6.58701 5.4125C6.97868 5.80417 7.44951 6 7.99951 6Z" fill="#A8A8A8"/>
</svg>
